<svg width="1825" height="659" viewBox="0 0 1825 659" fill="none" xmlns="http://www.w3.org/2000/svg">
<g opacity="0.3">
<path d="M802.887 72.1711C804.099 76.7765 807.654 80.4124 812.259 81.6244L817.188 82.9171L812.259 84.2099C807.654 85.4218 804.099 89.0577 802.887 93.6632L801.594 98.8342L800.301 93.6632C799.089 89.0577 795.534 85.4218 790.929 84.2099L786 82.9171L790.929 81.6244C795.534 80.4124 799.089 76.7765 800.301 72.1711L801.594 67L802.887 72.1711ZM801.594 89.5425C803.048 86.7146 805.391 84.3715 808.219 82.9171C805.391 81.382 803.129 79.1196 801.594 76.2917C800.14 79.1196 797.796 81.4628 794.969 82.9171C797.796 84.4523 800.059 86.7146 801.594 89.5425Z" fill="#FF9C31"/>
<path d="M998.887 512.171C1000.1 516.777 1003.65 520.412 1008.26 521.624L1013.19 522.917L1008.26 524.21C1003.65 525.422 1000.1 529.058 998.887 533.663L997.594 538.834L996.301 533.663C995.089 529.058 991.534 525.422 986.929 524.21L982 522.917L986.929 521.624C991.534 520.412 995.089 516.777 996.301 512.171L997.594 507L998.887 512.171ZM997.513 529.542C998.967 526.715 1001.31 524.371 1004.14 522.917C1001.31 521.382 999.048 519.12 997.513 516.292C996.059 519.12 993.716 521.463 990.888 522.917C993.716 524.452 996.059 526.715 997.513 529.542Z" fill="#FF9C31"/>
<path d="M1824.51 579.757C1824.51 584.039 1821.04 587.513 1816.76 587.513C1812.47 587.513 1809 584.039 1809 579.757C1809 575.474 1812.47 572 1816.76 572C1820.96 572 1824.51 575.474 1824.51 579.757ZM1821.77 579.757C1821.77 577.009 1819.5 574.747 1816.76 574.747C1814.01 574.747 1811.75 577.009 1811.75 579.757C1811.75 582.504 1814.01 584.766 1816.76 584.766C1819.5 584.766 1821.77 582.584 1821.77 579.757Z" fill="#3BB2F4"/>
<path d="M244.513 587.758C244.513 592.04 241.039 595.514 236.757 595.514C232.474 595.514 229 592.04 229 587.758C229 583.476 232.474 580.001 236.757 580.001C241.039 579.921 244.513 583.395 244.513 587.758ZM241.766 587.758C241.766 585.011 239.504 582.748 236.757 582.748C234.009 582.748 231.747 585.011 231.747 587.758C231.747 590.505 234.009 592.767 236.757 592.767C239.504 592.767 241.766 590.505 241.766 587.758Z" fill="#E22D80"/>
<path d="M342.513 104.758C342.513 109.04 339.039 112.515 334.757 112.515C330.474 112.515 327 109.04 327 104.758C327 100.476 330.474 97.0014 334.757 97.0014C339.039 96.9206 342.513 100.395 342.513 104.758ZM339.766 104.758C339.766 102.011 337.504 99.7485 334.757 99.7485C332.009 99.7485 329.747 102.011 329.747 104.758C329.747 107.505 332.009 109.767 334.757 109.767C337.504 109.767 339.766 107.505 339.766 104.758Z" fill="#FF9C31"/>
<path d="M11.6348 338H8.88773V358.522H11.6348V338Z" fill="#FF9C31"/>
<path d="M20.5225 346.888H1.52588e-05V349.635H20.5225V346.888Z" fill="#FF9C31"/>
<path d="M1598.51 3.79604e-05L1584 14.5115L1585.94 16.454L1600.45 1.94252L1598.51 3.79604e-05Z" fill="#E22D80"/>
<path d="M1585.94 4.70306e-05L1584 1.94254L1598.51 16.454L1600.45 14.5115L1585.94 4.70306e-05Z" fill="#E22D80"/>
<path d="M56.5121 8.0006L42.0006 22.5121L43.9431 24.4546L58.4546 9.94308L56.5121 8.0006Z" fill="#3BB2F4"/>
<path d="M43.9425 8.00004L42 9.94252L56.5115 24.454L58.454 22.5115L43.9425 8.00004Z" fill="#3BB2F4"/>
<path d="M671.514 642L657.003 656.511L658.945 658.454L673.456 643.943L671.514 642Z" fill="#3BB2F4"/>
<path d="M658.942 642.014L657 643.956L671.512 658.468L673.454 656.525L658.942 642.014Z" fill="#3BB2F4"/>
</g>
</svg>
